<?xml version="1.0" encoding="UTF-8" standalone="no"?>
<svg
   xmlns="http://www.w3.org/2000/svg"
   viewBox="0 0 240 240"
   version="1.1">
  <title>hexagon-notebook-publish</title>
  <path
     d="M 118.91992 0.00390625 A 9 9 0 0 0 114.5 1.2109375 L 18.5 56.710938 A 9 9 0 0 0 14 64.5 L 14 175.5 A 9 9 0 0 0 18.5 183.28906 L 31.958984 191.07031 L 31.958984 75.789062 L 32 75.789062 L 32 69.689453 L 119 19.390625 L 206 69.689453 L 206 75.789062 L 206.04102 75.789062 L 206.04102 191.07031 L 219.5 183.28906 A 9 9 0 0 0 224 175.5 L 224 64.5 A 9 9 0 0 0 219.5 56.710938 L 123.5 1.2109375 A 9 9 0 0 0 118.91992 0.00390625 z M 91.076172 204.46484 L 75.634766 216.32031 L 114.5 238.78906 A 9 9 0 0 0 123.5 238.78906 L 162.36523 216.32031 L 146.92383 204.46484 L 119 220.60938 L 91.076172 204.46484 z " />
  <path
     style="stroke-width:0.0762144"
     transform="matrix(13.120818,0,0,13.120818,-25.328998,4.968134)"
     d="M 5.5,16.5 V 5.5 L 11,2.4514096 16.5,5.5 v 11 l -5.4,-4.3 z"/>
</svg>
