<?xml version="1.0" encoding="UTF-8" standalone="no"?>
<svg
   xmlns="http://www.w3.org/2000/svg"
   version="1.1"
   viewBox="0 0 240 240">
  <title>hexagon-notebook-subscribe</title>
  <path
     d="M 118.91992,239.9945 A 9,9 0 0 1 114.5,238.78747 l -96,-55.5 A 9,9 0 0 1 14,175.49841 V 64.498405 a 9,9 0 0 1 4.5,-7.78906 l 13.458984,-7.78125 V 164.20934 H 32 v 6.09961 l 87,50.29883 87,-50.29883 v -6.09961 h 0.041 V 48.928095 L 219.5,56.709345 a 9,9 0 0 1 4.5,7.78906 V 175.49841 a 9,9 0 0 1 -4.5,7.78906 l -96,55.5 a 9,9 0 0 1 -4.58008,1.20703 z M 91.076172,35.533565 75.634766,23.678095 114.5,1.2093454 a 9,9 0 0 1 9,0 L 162.36523,23.678095 146.92383,35.533565 119,19.389025 Z" />
  <path
     d="M 46.835501,18.536774 V 162.86577 l 72.164499,40 72.1645,-40 V 18.536774 l -70.85242,56.419518 z"
     style="stroke-width:0.999995" />
</svg>
