<?xml version="1.0" encoding="UTF-8" standalone="no"?>
<svg xmlns="http://www.w3.org/2000/svg" viewBox="0 0 240 240">
  <title>chat</title>
  <path
     d="M 118.80273,-0.13475934 A 9.0009,9.0009 0 0 0 114.37305,1.0722719 L 18.373047,56.572273 a 9.0009,9.0009 0 0 0 -4.496094,7.791015 V 175.36329 a 9.0009,9.0009 0 0 0 9.005859,9 l 86.835938,-0.0586 0.1582,46.58984 a 9.0009,9.0009 0 0 0 13.50586,7.76172 l 96,-55.5 a 9.0009,9.0009 0 0 0 4.49414,-7.79297 V 64.363288 a 9.0009,9.0009 0 0 0 -4.49414,-7.791015 l -96,-55.5000011 a 9.0009,9.0009 0 0 0 -4.58008,-1.20703124 z m 0.0742,19.39453234 87,50.296875 V 170.17189 l -78.05273,45.125 -0.13672,-40.0293 a 9.0009,9.0009 0 0 0 -9.00586,-8.96875 l -86.804687,0.0586 V 69.556648 Z"
     />
</svg>
